<svg xmlns="http://www.w3.org/2000/svg" viewBox="0 0 64 64" width="256" height="256" fill="#8a949e">
  <path d="M32 8a24 24 0 00-7.6 46.8c1.2.2 1.6-.6 1.6-1.2v-4.3c-6.6 1.4-8-2.8-8-2.8-1.1-2.8-2.8-3.6-2.8-3.6-2.3-1.6.2-1.6.2-1.6 2.6.2 4 2.6 4 2.6 2.2 4 5.9 2.9 7.3 2.2.2-1.6.9-2.9 1.6-3.5-5.3-.6-10.9-2.6-10.9-11.9 0-2.6.9-4.7 2.4-6.4-.3-.6-1-3 .2-6.2 0 0 2-.6 6.6 2.4a23 23 0 0112 0c4.6-3 6.6-2.4 6.6-2.4 1.2 3.2.5 5.6.2 6.2 1.5 1.7 2.4 3.8 2.4 6.4 0 9.4-5.6 11.3-10.9 11.9 1 .8 1.8 2.4 1.8 4.9v7.2c0 .6.4 1.4 1.6 1.2A24 24 0 0032 8z"/>
</svg>

