<svg xmlns="http://www.w3.org/2000/svg" viewBox="0 0 64 64" width="256" height="256">
  <g fill="none" stroke="#8a949e" stroke-width="3" stroke-linecap="round" stroke-linejoin="round">
    <rect x="6" y="6" width="52" height="52" rx="8"/>
  </g>
  <g fill="#8a949e">
    <path d="M21 42V22h3.8v20H21zm10.6 0V22h3.7v3.7c1.2-2.5 3.6-4.1 6.9-4.1 5.2 0 8.8 3.7 8.8 9.5 0 6.4-4.2 10.2-9.2 10.2-2.6 0-4.7-.9-6.3-3v3.7h-3.9zm10.1-16.4c-3.5 0-6.1 2.4-6.1 6.6 0 4.2 2.6 6.7 6.1 6.7 3.6 0 6.1-2.6 6.1-6.7 0-4.1-2.5-6.6-6.1-6.6z"/>
  </g>
</svg>

