<svg xmlns="http://www.w3.org/2000/svg" viewBox="0 0 64 64" width="256" height="256">
  <g fill="none" stroke="#8a949e" stroke-width="3" stroke-linecap="round" stroke-linejoin="round">
    <rect x="6" y="6" width="52" height="52" rx="8"/>
  </g>
  <path d="M18 44V20h12c5 0 8 3 8 7s-3 7-8 7h-8v10h-4zm4-14h8c3 0 4-2 4-3s-1-3-4-3h-8v6zM42 44c-4 0-7-2-7-5 0-3 2-4 6-5 2-.4 3-.6 3-1.6 0-1-1.2-1.6-3-1.6-1.8 0-3.3.6-4.2 1.4l-1.5-2.9c1.5-1.2 3.9-1.9 6.4-1.9 4 0 6.7 1.8 6.7 5 0 2.9-2 4.2-5.6 4.9-2.4.5-3.2.8-3.2 1.6 0 .8.9 1.4 2.6 1.4 1.7 0 3.3-.6 4.2-1.5l1.7 2.7c-1.6 1.4-3.8 2.1-6.1 2.1z" fill="#8a949e"/>
</svg>

